<svg xmlns="http://www.w3.org/2000/svg" width="413.879" height="67.202" viewBox="0 0 413.879 67.202">
  <g id="embold-logo" transform="translate(-22.193 -81.5)">
    <path id="Path_8698" data-name="Path 8698" d="M112.527,161.525H96.013a3.867,3.867,0,0,1,0-7.729h16.515a3.867,3.867,0,0,1,.3,7.729Z" transform="translate(-40.492 -41.759)" fill="#21abb0"/>
    <path id="Path_8699" data-name="Path 8699" d="M182.127,161.529H165.613a3.867,3.867,0,0,1,0-7.729h16.515a3.867,3.867,0,0,1,0,7.729Z" transform="translate(-80.695 -41.763)" fill="#21abb0"/>
    <path id="Path_8700" data-name="Path 8700" d="M42.385,161.525H25.913a3.867,3.867,0,0,1,0-7.729H42.385a3.867,3.867,0,0,1,.3,7.729Z" transform="translate(0 -41.759)" fill="#21abb0"/>
    <path id="Path_8701" data-name="Path 8701" d="M182.127,89.229H165.613a3.867,3.867,0,0,1,0-7.729h16.515a3.867,3.867,0,0,1,0,7.729Z" transform="translate(-80.695)" fill="#21abb0"/>
    <path id="Path_8702" data-name="Path 8702" d="M111.927,89.229H95.413a3.867,3.867,0,0,1,0-7.729h16.515a3.867,3.867,0,0,1,0,7.729Z" transform="translate(-40.145)" fill="#21abb0"/>
    <path id="Path_8703" data-name="Path 8703" d="M27.433,89.229H25.913a3.867,3.867,0,0,1,0-7.729h1.521a3.867,3.867,0,0,1,0,7.729Z" fill="#21abb0"/>
    <path id="Path_8704" data-name="Path 8704" d="M97.575,125.429H96.013a3.867,3.867,0,0,1,0-7.729h1.521a3.842,3.842,0,0,1,3.717,4.012,3.8,3.8,0,0,1-3.675,3.717Z" transform="translate(-40.492 -20.91)" fill="#21abb0"/>
    <path id="Path_8705" data-name="Path 8705" d="M132.029,125.429h-1.521a3.867,3.867,0,0,1-.3-7.729h1.816a3.867,3.867,0,0,1,0,7.729Z" transform="translate(-60.247 -20.91)" fill="#21abb0"/>
    <path id="Path_8706" data-name="Path 8706" d="M167.233,125.425h-1.521a3.867,3.867,0,0,1,0-7.729h1.521a3.867,3.867,0,1,1,.3,7.729Z" transform="translate(-80.753 -20.906)" fill="#21abb0"/>
    <path id="Path_8707" data-name="Path 8707" d="M42.385,125.425H25.913a3.867,3.867,0,0,1,0-7.729H42.385a3.867,3.867,0,1,1,.3,7.729Z" transform="translate(0 -20.906)" fill="#21abb0"/>
    <path id="Path_8708" data-name="Path 8708" d="M97.575,230.029H96.013a3.867,3.867,0,0,1,0-7.729h1.521a3.842,3.842,0,0,1,3.717,4.012,3.77,3.77,0,0,1-3.675,3.717Z" transform="translate(-40.492 -81.331)" fill="#21abb0"/>
    <path id="Path_8709" data-name="Path 8709" d="M132.029,230.029h-1.521a3.867,3.867,0,0,1-.3-7.729h1.816a3.867,3.867,0,0,1,0,7.729Z" transform="translate(-60.247 -81.331)" fill="#21abb0"/>
    <path id="Path_8710" data-name="Path 8710" d="M42.385,230.025H25.913a3.867,3.867,0,0,1,0-7.729H42.385a3.867,3.867,0,0,1,.3,7.729Z" transform="translate(0 -81.327)" fill="#21abb0"/>
    <path id="Path_8711" data-name="Path 8711" d="M27.433,193.829H25.913a3.867,3.867,0,0,1,0-7.729h1.521a3.867,3.867,0,0,1,0,7.729Z" transform="translate(0 -60.42)" fill="#21abb0"/>
    <path id="Path_8712" data-name="Path 8712" d="M132.029,193.829h-1.521a3.867,3.867,0,0,1-.3-7.729h1.816a3.867,3.867,0,0,1,0,7.729Z" transform="translate(-60.247 -60.42)" fill="#21abb0"/>
    <path id="Path_8713" data-name="Path 8713" d="M167.233,193.825h-1.521a3.867,3.867,0,0,1,0-7.729h1.521a3.867,3.867,0,1,1,.3,7.729Z" transform="translate(-80.753 -60.416)" fill="#21abb0"/>
    <path id="Path_8714" data-name="Path 8714" d="M76.781,193.829H60.308a3.867,3.867,0,1,1-.3-7.729h16.81a3.842,3.842,0,0,1,3.717,4.012A3.905,3.905,0,0,1,76.781,193.829Z" transform="translate(-19.697 -60.42)" fill="#21abb0"/>
    <path id="Path_8715" data-name="Path 8715" d="M299.085,156.492h-32.9c1.352,4.266,5.111,6.758,10.517,6.758,4.266,0,7.814-2.2,8.405-3.886h13.516c-1.14,6.8-9.123,16.3-22.935,16.3-14.192,0-24.286-9.546-24.286-23.23,0-14.656,11.362-23.737,24.286-23.737,12.84,0,23.737,8.954,23.737,22.681C299.381,152.648,299.254,154.253,299.085,156.492Zm-14.023-8.405c-.084-4.435-4.055-7.349-9.165-7.349-4.35,0-8.405,1.943-9.841,7.349Z" transform="translate(-132.398 -27.264)" fill="#2a3141"/>
    <path id="Path_8716" data-name="Path 8716" d="M454.363,150.678v22.766a1.424,1.424,0,0,1-1.436,1.436h-11.4a1.424,1.424,0,0,1-1.436-1.436V151.819c0-6.927-3.463-9.081-7.138-9.081-4.35,0-7.6,2.323-7.729,9.461v21.245a1.424,1.424,0,0,1-1.436,1.436h-11.4a1.424,1.424,0,0,1-1.436-1.436V151.819c0-6.927-3.463-9.081-7.054-9.081-3.844,0-7.814,1.563-7.814,9.081v21.625a1.424,1.424,0,0,1-1.436,1.436h-11.4a1.424,1.424,0,0,1-1.436-1.436V131.376a1.424,1.424,0,0,1,1.436-1.436h11.4a1.424,1.424,0,0,1,1.436,1.436v6.885c1.14-6.547,7.6-9.461,12.164-9.461,6.673,0,11.657,3.083,14.276,8.49,3.083-6.082,10.01-8.49,14.741-8.49C448.576,128.758,454.363,136.909,454.363,150.678Z" transform="translate(-207.721 -27.322)" fill="#2a3141"/>
    <path id="Path_8717" data-name="Path 8717" d="M622.593,125.308c0,14.572-10.6,23.441-21.879,23.441-4.646,0-10.6-1.732-13.9-5.871v3.59a1.424,1.424,0,0,1-1.436,1.436H573.936a1.424,1.424,0,0,1-1.436-1.436V83.536a1.424,1.424,0,0,1,1.436-1.436h11.4a1.424,1.424,0,0,1,1.436,1.436V107.78c3.294-4.139,9.25-5.871,13.9-5.871C611.991,101.909,622.593,110.779,622.593,125.308Zm-14.487,0a10.437,10.437,0,1,0-10.432,10.137,10.312,10.312,0,0,0,10.432-10.137Z" transform="translate(-317.875 -0.347)" fill="#2a3141"/>
    <path id="Path_8718" data-name="Path 8718" d="M702.5,152.226c0-14.276,11.573-23.526,24.413-23.526s24.5,9.25,24.5,23.526c0,14.192-11.657,23.441-24.5,23.441S702.5,166.417,702.5,152.226Zm34.339,0c0-6.167-4.435-10.306-9.926-10.306s-9.926,4.139-9.926,10.306,4.435,10.221,9.926,10.221,9.926-4.012,9.926-10.221Z" transform="translate(-392.968 -27.264)" fill="#2a3141"/>
    <path id="Path_8719" data-name="Path 8719" d="M835.336,82.1h11.4a1.424,1.424,0,0,1,1.436,1.436v62.933a1.424,1.424,0,0,1-1.436,1.436h-11.4a1.424,1.424,0,0,1-1.436-1.436V83.536A1.424,1.424,0,0,1,835.336,82.1Z" transform="translate(-468.869 -0.347)" fill="#2a3141"/>
    <path id="Path_8720" data-name="Path 8720" d="M933.766,83.536v62.933a1.424,1.424,0,0,1-1.436,1.436H921.011a1.424,1.424,0,0,1-1.436-1.436v-3.675c-3.294,4.266-9.377,6-13.98,6-11.193,0-21.794-8.87-21.794-23.441s10.6-23.441,21.794-23.441c4.646,0,10.686,1.732,13.98,6V83.536a1.424,1.424,0,0,1,1.436-1.436H932.33A1.424,1.424,0,0,1,933.766,83.536Zm-14.741,41.772a10.372,10.372,0,1,0-10.306,10.137A10.282,10.282,0,0,0,919.025,125.308Z" transform="translate(-497.693 -0.347)" fill="#2a3141"/>
  </g>
</svg>
